HIERARCHY
ROOT Hips
{
  OFFSET 0 89.5177 0.535
  CHANNELS 6 Xposition Yposition Zposition Zrotation Xrotation Yrotation
  JOINT Spine
  {
    OFFSET 12.0259 -0.162855 1.69034e-005
    CHANNELS 3 Zrotation Xrotation Yrotation
    JOINT Spine1
    {
      OFFSET 15.3169 -0.0121922 0
      CHANNELS 3 Zrotation Xrotation Yrotation
      JOINT Spine2
      {
        OFFSET 15.3176 -0.0121908 0
        CHANNELS 3 Zrotation Xrotation Yrotation
        JOINT Neck
        {
          OFFSET 19.9142 1.56338 0
          CHANNELS 3 Zrotation Xrotation Yrotation
          JOINT Head
          {
            OFFSET 6.92651 0 0
            CHANNELS 3 Zrotation Xrotation Yrotation
            End Site
            {
              OFFSET 20.7666 0 0
            }
          }
          JOINT LeftShoulder
          {
            OFFSET -6.20654 0.708824 7.28219
            CHANNELS 3 Zrotation Xrotation Yrotation
            JOINT LeftArm
            {
              OFFSET 14.108 0 -1.52588e-005
              CHANNELS 3 Zrotation Xrotation Yrotation
              JOINT LeftForeArm
              {
                OFFSET 28.5802 0 0
                CHANNELS 3 Zrotation Xrotation Yrotation
                JOINT LeftHand
                {
                  OFFSET 27.092 0 0
                  CHANNELS 3 Zrotation Xrotation Yrotation
                  End Site
                  {
                    OFFSET 9.55928 -0.186424 0.145352
                  }
                }
              }
            }
          }
          JOINT RightShoulder
          {
            OFFSET -6.20654 0.708866 -7.28218
            CHANNELS 3 Zrotation Xrotation Yrotation
            JOINT RightArm
            {
              OFFSET 14.108 0 1.52588e-005
              CHANNELS 3 Zrotation Xrotation Yrotation
              JOINT RightForeArm
              {
                OFFSET 28.5802 0 0
                CHANNELS 3 Zrotation Xrotation Yrotation
                JOINT RightHand
                {
                  OFFSET 27.092 0 0
                  CHANNELS 3 Zrotation Xrotation Yrotation
                  End Site
                  {
                    OFFSET 9.55929 -0.186417 -0.145354
                  }
                }
              }
            }
          }
        }
      }
    }
  }
  JOINT LeftUpLeg
  {
    OFFSET 0.005 -0.535 8.837
    CHANNELS 3 Zrotation Xrotation Yrotation
    JOINT LeftLeg
    {
      OFFSET 39.9035 0 0
      CHANNELS 3 Zrotation Xrotation Yrotation
      JOINT LeftFoot
      {
        OFFSET 39.6689 0 0
        CHANNELS 3 Zrotation Xrotation Yrotation
        JOINT LeftToe
        {
          OFFSET 10.1624 13.6296 0
          CHANNELS 3 Zrotation Xrotation Yrotation
          End Site
          {
            OFFSET 8.38147 0 0
          }
        }
      }
    }
  }
  JOINT RightUpLeg
  {
    OFFSET 0.005 -0.535 -8.837
    CHANNELS 3 Zrotation Xrotation Yrotation
    JOINT RightLeg
    {
      OFFSET 39.9035 0 0
      CHANNELS 3 Zrotation Xrotation Yrotation
      JOINT RightFoot
      {
        OFFSET 39.6689 0 0
        CHANNELS 3 Zrotation Xrotation Yrotation
        JOINT RightToe
        {
          OFFSET 10.1624 13.6296 0
          CHANNELS 3 Zrotation Xrotation Yrotation
          End Site
          {
            OFFSET 8.38147 0 0
          }
        }
      }
    }
  }
}
MOTION
Frames:	17
Frame Time:	0.0333333
510.399 85.1661 -246.812 97.6308 53.5067 -9.25484 1.54982 -2.08932 1.89933 3.17121 -4.12481 3.85845 3.17121 -4.12481 3.85844 -8.31066e-012 -9.0191e-006 -5.27751e-005 -31.5208 -26.2206 -5.56426 -179.152 -2.76923 -72.9724 -37.4192 -8.40387 56.2302 -45.0058 3.97569e-016 3.18055e-015 -36.6848 -33.2258 -37.4661 179.834 -0.442458 69.4096 11.469 18.7352 -61.3636 -17.121 -3.18055e-015 1.78906e-015 -29.9101 34.7299 32.1608 -6.4835 5.72986 -166.577 -28.584 -3.18055e-015 -6.36111e-015 25.6955 4.78423 -10.0092 90 -1.98785e-016 -3.18055e-015 -25.1622 -7.84067 -178.116 -34.9513 0 -3.18056e-015 13.8434 -10.0685 -1.46575 90 -2.42657e-020 3.18055e-015 
509.448 85.2753 -246.691 97.4142 52.7584 -8.27159 1.52534 -2.09808 1.897 3.12247 -4.14324 3.85318 3.12247 -4.14324 3.85317 -8.30708e-012 -9.0191e-006 -5.27751e-005 -31.3038 -25.3285 -5.69015 -179.206 -2.62099 -73.1431 -35.1189 -10.4941 56.8221 -38.2309 -2.18663e-015 -0 -35.2471 -31.7181 -35.5627 179.901 -0.265237 69.5823 11.8325 18.2979 -60.7607 -17.4206 -6.36111e-015 -1.98785e-016 -29.9188 34.9308 32.3028 -8.90565 5.55141 -166.403 -33.8644 -9.54166e-015 1.59028e-015 24.3274 4.65662 -10.3927 90 7.95139e-016 -9.54166e-015 -24.7863 -7.29958 -178.109 -35.0444 6.36111e-015 7.95139e-016 14.2414 -10.3164 -1.99832 90 6.06643e-021 6.36111e-015 
508.567 85.3585 -246.486 97.139 51.9088 -7.29 1.49854 -2.06373 1.89486 3.06752 -4.07553 3.84693 3.06752 -4.07553 3.84692 -8.31146e-012 -9.0191e-006 -5.27751e-005 -30.7023 -24.6724 -6.79465 -179.28 -2.38112 -73.1629 -31.3848 -12.7733 57.9112 -31.2863 -7.95139e-015 -3.18055e-015 -33.0982 -29.3866 -32.514 179.952 -0.130947 69.7141 11.432 17.4812 -59.8808 -17.8167 3.18055e-015 3.57812e-015 -29.7819 35.3845 32.2603 -11.2701 5.22941 -166.324 -38.9819 9.54166e-015 3.18055e-015 22.5053 4.64791 -10.6816 90 -1.59028e-015 -9.54166e-015 -24.3882 -6.52018 -178.085 -35.2033 -9.54167e-015 -1.59028e-015 14.6988 -10.493 -2.41802 90 1.21329e-020 -6.36111e-015 
507.713 85.4517 -246.196 96.4777 50.9727 -6.04764 1.48797 -2.01288 1.9186 3.04532 -3.97361 3.89255 3.04532 -3.97361 3.89254 -8.30649e-012 -9.0191e-006 -5.27751e-005 -31.1886 -23.2132 -7.39561 -179.367 -2.00839 -72.4913 -26.7161 -13.8901 58.7946 -25.9573 0 6.36111e-015 -31.0018 -27.5404 -30.7529 179.942 -0.158397 69.9983 11.1638 16.8418 -59.1184 -17.9283 0 1.39149e-015 -29.5088 35.5672 31.9618 -12.7378 4.64919 -166.47 -42.8166 0 -0 20.5543 5.02359 -10.8187 90 1.59028e-015 3.18055e-015 -23.6628 -5.79128 -178.09 -35.2713 6.36111e-015 7.95139e-016 15.1336 -10.8562 -2.78841 90 -3.03321e-020 1.27222e-014 
506.774 85.5153 -245.929 95.7419 49.5449 -4.95676 1.48277 -1.8655 1.8859 3.02855 -3.68004 3.82261 3.02855 -3.68004 3.8226 -8.30669e-012 -9.0191e-006 -5.27751e-005 -30.7828 -22.4616 -8.04999 -179.411 -1.81026 -71.9653 -20.913 -14.8326 59.8527 -21.5676 0 -9.54166e-015 -29.9112 -25.4753 -29.1322 179.941 -0.161463 69.8956 10.6568 16.5029 -58.3519 -17.686 -6.36111e-015 -3.62782e-015 -29.3836 35.5661 31.901 -12.8637 4.57751 -166.52 -43.7353 6.36111e-015 6.36111e-015 19.9072 7.00546 -10.6622 90 -1.59028e-015 6.36111e-015 -22.8487 -4.54615 -177.628 -35.2536 -6.36111e-015 -0 15.5001 -10.9803 -3.20933 90 3.03321e-021 1.27222e-014 
505.94 85.5997 -245.582 95.0135 48.2416 -3.84831 1.46888 -1.73033 1.84978 2.99488 -3.41126 3.74599 2.99488 -3.41126 3.74598 -8.30579e-012 -9.0191e-006 -5.27751e-005 -30.7333 -21.6086 -7.92062 -179.426 -1.68549 -71.1963 -15.3549 -14.5101 60.5576 -19.1035 3.18055e-015 6.36111e-015 -29.1521 -25.1926 -29.2286 -179.985 0.0407493 69.8706 10.1476 16.524 -57.7444 -17.3769 0 -7.45443e-017 -29.1613 35.3097 31.6646 -11.8485 4.25342 -167.013 -41.8204 -6.36111e-015 -4.77083e-015 20.4581 9.64361 -10.35 90 -7.95139e-016 3.18055e-015 -21.9498 -4.04427 -177.565 -35.1639 0 -7.95139e-016 15.8221 -11.834 -3.56996 90 -3.63986e-020 -6.36111e-015 
505.149 85.6613 -245.242 94.6166 46.9008 -3.13904 1.42097 -1.61033 1.80037 2.89354 -3.17421 3.64239 2.89354 -3.17421 3.64239 -8.30669e-012 -9.0191e-006 -5.27751e-005 -30.4156 -21.5399 -7.80247 -179.377 -1.75977 -70.508 -10.2997 -13.209 60.7192 -17.9568 -3.18055e-015 -0 -29.0918 -25.8753 -29.6629 -179.93 0.190411 69.7871 10.0759 16.9208 -57.6117 -17.1975 -6.36111e-015 -2.73329e-015 -29.2531 35.1807 31.8574 -11.0882 3.91715 -167.21 -39.0826 -3.18055e-015 1.59028e-015 20.8119 10.8656 -10.6524 90 -7.95139e-016 6.36111e-015 -21.27 -4.32175 -177.625 -35.1748 6.36111e-015 6.36111e-015 16.4322 -13.3335 -3.88042 90 2.48481e-017 3.18055e-015 
504.385 85.7019 -244.871 94.3414 45.9058 -2.68622 1.35171 -1.57806 1.74551 2.75242 -3.11328 3.5299 2.75242 -3.11328 3.52989 -8.31062e-012 -9.0191e-006 -5.27751e-005 -29.8063 -21.818 -7.70937 -179.164 -2.29106 -69.9487 -6.77904 -10.9758 60.2556 -17.741 6.36111e-015 6.36111e-015 -29.0741 -27.5516 -30.4492 -179.96 0.108827 69.6698 10.3473 17.071 -57.7984 -17.4906 -3.18055e-015 -1.2921e-015 -29.3402 35.3439 31.8655 -10.4819 3.27406 -167.101 -35.5689 -6.36111e-015 -4.77083e-015 20.6755 10.7611 -11.4726 90 1.59028e-015 -3.18055e-015 -20.5984 -3.59607 -177.363 -35.1955 6.36111e-015 -7.95139e-016 17.1574 -13.6285 -4.0283 90 2.48481e-017 -9.54166e-015 
503.729 85.7268 -244.478 94.2607 45.2764 -2.46017 1.28049 -1.50288 1.71494 2.60673 -2.96588 3.46497 2.60673 -2.96588 3.46496 -8.31066e-012 -9.0191e-006 -5.27751e-005 -30.0042 -22.5026 -7.4308 -179.113 -2.40329 -69.7423 -2.8637 -9.31524 60.3483 -17.2496 9.54166e-015 -6.36111e-015 -29.1707 -28.2426 -31.1576 -179.843 0.421043 69.5873 9.87776 16.9122 -57.7173 -18.1686 6.36111e-015 4.96962e-016 -29.3266 36.0946 31.9459 -10.1972 2.40559 -166.826 -31.5391 -3.18055e-015 2.38542e-015 19.7336 9.58492 -12.5244 90 0 -9.54166e-015 -20.0362 -2.89335 -177.131 -35.1209 -9.54167e-015 -4.77083e-015 17.6107 -13.5401 -4.15125 90 -4.96962e-017 -6.36111e-015 
503.17 85.7262 -244.077 94.2955 44.8338 -2.40562 1.22076 -1.45198 1.71999 2.48575 -2.86583 3.47233 2.48575 -2.86583 3.47232 -8.3042e-012 -9.0191e-006 -5.27751e-005 -30.706 -22.9759 -7.07522 -178.952 -2.79328 -69.4177 -0.0326016 -7.92345 60.188 -16.4383 0 3.18055e-015 -29.1541 -28.8067 -31.7165 -179.787 0.575398 69.6668 9.43293 16.689 -57.811 -18.9603 -3.18055e-015 -1.78906e-015 -29.3927 36.7614 32.1512 -10.2601 1.55811 -166.503 -27.3443 3.18055e-015 3.97569e-015 18.0783 8.16027 -13.4467 90 7.95139e-016 -3.18055e-015 -19.5808 -1.94509 -176.811 -34.9666 0 -7.95139e-016 17.7177 -13.0193 -4.28162 90 0 -3.18055e-015 
502.742 85.6875 -243.697 94.6947 44.7129 -2.86105 1.13022 -1.38079 1.77574 2.30369 -2.72513 3.58006 2.30369 -2.72513 3.58005 -8.30619e-012 -9.0191e-006 -5.27751e-005 -31.3612 -23.8564 -7.09813 -178.933 -2.84482 -69.4369 2.76434 -7.08791 60.4837 -15.0109 -3.18055e-015 -0 -29.1245 -28.2548 -31.6564 -179.692 0.830977 69.666 8.44339 16.1799 -57.5852 -19.7694 0 2.38542e-015 -29.4714 37.0567 32.2241 -10.9923 1.72147 -166.084 -22.782 3.18055e-015 6.95746e-015 16.0949 7.80113 -13.644 90 -9.93923e-017 -3.18055e-015 -19.408 -1.44489 -176.441 -34.8096 0 2.38542e-015 17.7849 -12.5157 -4.36275 90 0 1.27222e-014 
502.42 85.6284 -243.243 95.2282 44.8878 -3.46836 1.02107 -1.37696 1.8447 2.08684 -2.71963 3.71539 2.08684 -2.71963 3.71538 -8.30917e-012 -9.0191e-006 -5.27751e-005 -31.909 -24.2431 -7.20441 -178.905 -2.90736 -69.3492 5.57617 -6.94519 60.6073 -13.3265 -1.27222e-014 1.59028e-015 -28.3075 -27.5811 -30.6072 -179.711 0.783035 69.7561 7.85302 15.8675 -57.6139 -20.1708 0 7.95139e-016 -29.5838 37.1132 32.2694 -14.9056 3.02397 -165.582 -22.8486 0 -9.93923e-016 13.6465 9.43201 -13.9695 90 -6.06643e-021 3.18055e-015 -19.3653 -1.73238 -176.351 -34.8576 0 -1.59028e-015 18.2289 -12.5247 -4.30953 90 -1.81993e-020 6.36111e-015 
502.143 85.5721 -242.709 95.3453 45.2083 -3.74232 0.975202 -1.29576 1.88374 1.99324 -2.55809 3.79085 1.99324 -2.55809 3.79084 -8.30847e-012 -9.0191e-006 -5.27751e-005 -32.4173 -24.9362 -7.52496 -179 -2.67361 -69.4784 7.32152 -6.67465 60.7979 -11.9608 0 -0 -27.1536 -27.0419 -29.6274 -179.622 1.02619 69.7674 7.37831 16.0181 -57.6438 -20.1496 -3.18055e-015 7.95139e-016 -29.4928 37.1645 32.2161 -19.3701 5.57943 -165.198 -24.446 3.18055e-015 -3.18055e-015 11.2625 11.9579 -13.0997 90 -1.21329e-020 3.18055e-015 -19.0112 -1.79431 -176.327 -34.9631 -6.36111e-015 -6.36111e-015 18.7987 -12.2619 -4.16675 90 -3.03321e-021 -6.36111e-015 
501.968 85.5269 -242.095 95.2009 45.945 -3.80647 0.94555 -1.30642 1.90153 1.93469 -2.58008 3.82599 1.93469 -2.58008 3.82599 -8.30589e-012 -9.0191e-006 -5.27751e-005 -32.7447 -25.5167 -7.59457 -179.001 -2.67765 -69.5236 8.0121 -6.36819 60.6993 -11.0661 -6.36111e-015 -3.18055e-015 -25.9103 -26.9295 -28.937 -179.67 0.896409 69.7662 7.52644 16.2788 -57.8531 -19.885 6.36111e-015 1.59028e-015 -29.2728 37.2309 32.0219 -22.0156 5.82411 -165.714 -25.3879 -3.18055e-015 1.98785e-015 9.82819 14.8537 -12.0648 90 -1.21329e-020 -1.27222e-014 -18.4213 -2.0883 -176.516 -35.0684 -6.36111e-015 -0 19.4219 -11.9366 -3.9234 90 -9.09964e-021 -6.36111e-015 
501.769 85.438 -241.397 94.5809 46.5297 -3.55238 0.967413 -1.25126 1.91238 1.97675 -2.46887 3.84711 1.97675 -2.46887 3.8471 -8.31026e-012 -9.0191e-006 -5.27751e-005 -32.7686 -26.6468 -7.99561 -179.036 -2.60047 -69.639 8.77938 -6.63053 60.841 -10.4597 -9.54166e-015 1.59028e-015 -24.6852 -26.3973 -27.9692 -179.756 0.661873 69.7732 7.54388 16.3174 -57.8995 -19.6302 3.18055e-015 -0 -29.4657 36.9584 32.3622 -23.4695 3.78227 -166.692 -28.3009 3.18055e-015 -1.36354e-015 13.6186 19.09 -12.3054 90 -3.97569e-016 3.18055e-015 -17.5467 -2.25774 -176.653 -35.3277 0 4.77083e-015 20.1667 -11.6314 -3.65471 90 3.03321e-021 3.18055e-015 
501.563 85.2905 -240.597 93.6674 46.9805 -3.11576 0.998978 -1.12814 1.95113 2.03637 -2.22095 3.9229 2.03637 -2.22095 3.92289 -8.30927e-012 -9.0191e-006 -5.27751e-005 -32.716 -28.5385 -8.94856 -179.028 -2.59648 -69.4613 8.293 -6.57962 60.7968 -10.6776 6.36111e-015 4.77083e-015 -24.0544 -26.8138 -28.1385 -179.752 0.678665 69.9491 7.2867 16.3922 -57.8647 -19.2505 -6.36111e-015 -2.38542e-015 -29.3596 36.8064 32.1576 -23.4176 0.208529 -168.204 -31.1061 9.54166e-015 -1.49089e-015 17.6542 24.0128 -12.8028 90 0 -3.18055e-015 -16.5276 -2.71984 -176.868 -35.7916 0 -0 21.0532 -11.8166 -3.33687 90 -6.06643e-021 -3.18055e-015 
501.336 85.2521 -239.708 92.4644 47.0588 -2.2052 1.01814 -1.03042 1.84992 2.06951 -2.0268 3.7189 2.06951 -2.0268 3.71889 -8.30887e-012 -9.0191e-006 -5.27751e-005 -31.5499 -30.5923 -9.42496 -179.018 -2.63243 -69.5401 8.13161 -6.48021 60.7794 -11.5052 3.18055e-015 -1.59028e-015 -24.0724 -27.2633 -27.8217 -179.928 0.193714 69.7489 7.25207 16.2305 -57.797 -18.8852 6.36111e-015 7.95139e-016 -29.2738 36.6591 32.0608 -21.8222 -3.66489 -170.1 -32.3004 0 2.18663e-015 19.0424 24.9823 -12.2434 90 -9.93923e-017 -0 -15.1428 -2.96384 -177.325 -35.8831 -3.18056e-015 1.59028e-015 21.774 -12.1843 -2.95827 90 6.06643e-021 6.36111e-015 
